<svg id="ezMVChKqLT91" xmlns="http://www.w3.org/2000/svg" xmlns:xlink="http://www.w3.org/1999/xlink" viewBox="0 0 640 480" shapeRendering="geometricPrecision" textRendering="geometricPrecision">
  <rect width="114.080717" height="185.112107" rx="0" ry="0" transform="translate(172.017937 220.627804)" fill="#fff" stroke="#fff" />
  <rect width="114.080717" height="185.112107" rx="0" ry="0" transform="translate(363.587445 224.932737)" fill="#fff" stroke="#fff" />
  <rect width="305.650225" height="96.860987" rx="0" ry="0" transform="translate(172.017938 220.627804)" fill="#fff" stroke="#fff" />
  <line x1="0" y1="98.98232" x2="0" y2="-98.98232" transform="translate(320 121.645484)" fill="#fff" stroke="#fff" strokeWidth="3" />
  <line x1="-175.779234" y1="0" x2="175.779235" y2="0" transform="translate(323.306771 220.627804)" fill="#fff" stroke="#fff" strokeWidth="3" />
  <line x1="-86.236231" y1="98.98232" x2="86.236232" y2="-98.98232" transform="translate(233.763769 121.645484)" fill="#fff" stroke="#fff" strokeWidth="3" />
  <line x1="-89.543003" y1="-98.98232" x2="89.543003" y2="98.98232" transform="translate(409.543003 121.645484)" fill="#fff" stroke="#fff" strokeWidth="3" />
  <rect width="286.417329" height="39.087632" rx="0" ry="0" transform="translate(179.882668 181.540172)" fill="#fff" stroke="#fff" />
  <rect width="224.370687" height="34.470357" rx="0" ry="0" transform="translate(209.965889 147.069815)" fill="#fff" stroke="#fff" />
  <rect width="50.765435" height="99.023934" rx="0" ry="0" transform="translate(295.20168 48.045881)" fill="#fff" stroke="#fff" />
  <rect width="104.037804" height="67.687246" rx="0" ry="0" transform="translate(270.132329 79.382569)" fill="#fff" stroke="#fff" />
  <rect width="27.576285" height="33.843623" rx="0" ry="0" transform="translate(242.556044 113.226192)" fill="#fff" stroke="#fff" />
  <rect width="29.456487" height="33.843623" rx="0" ry="0" transform="translate(374.170134 113.226192)" fill="#fff" stroke="#fff" />
  <rect width="30.08322" height="163.692581" rx="0" ry="0" transform="matrix(.754075 0.656788-.863021 0.990855 307.757482 38.673841)" fill="#fff" stroke="#fff" />
  <rect width="30.08322" height="163.692581" rx="0" ry="0" transform="matrix(.740933-.671579 0.882455 0.973587 310.927164 58.877089)" fill="#fff" stroke="#fff" />
  <rect width="32.24623" height="30.886689" rx="0" ry="0" transform="matrix(.714486 0.69965-.69965 0.714486 319.869594 22.663164)" fill="#fff" stroke="#fff" />
  <rect width="37.604026" height="34.470357" rx="0" ry="0" transform="matrix(.672106-.014275 0.012779 0.601678 163.458003 199.887738)" fill="#fff" stroke="#fff" />
  <rect width="64" height="48" rx="0" ry="0" transform="matrix(.276156-.002583 0.001111 0.118769 150.439806 215.693612)" fill="#fff" stroke="#fff" />
  <rect width="64" height="48" rx="0" ry="0" transform="matrix(.276156-.002583 0.001111 0.118769 153.461641 212.018409)" fill="#fff" stroke="#fff" />
  <rect width="64" height="48" rx="0" ry="0" transform="matrix(.362265-.003388 0.001474 0.157651 156.485913 208.126359)" fill="#fff" stroke="#fff" />
  <rect width="64" height="48" rx="0" ry="0" transform="matrix(.276156-.002583 0.001111 0.118769 160.102624 204.288463)" fill="#fff" stroke="#fff" />
  <rect width="30.788383" height="17.106052" rx="0" ry="0" transform="matrix(.738471 0 0 1.262193 455.378504 198.499853)" fill="#fff" stroke="#fff" />
  <rect width="18.404876" height="12.718291" rx="0" ry="0" transform="matrix(1 0 0 0.553535 474.013941 211.421393)" fill="#fff" stroke="#fff" />
  <rect width="8.94944" height="5.655841" rx="0" ry="0" transform="matrix(2 0 0 0.972802 478.114832 214.786209)" fill="#fff" stroke="#fff" />
  <rect width="12.83791" height="2.640334" rx="0" ry="0" transform="matrix(1 0 0 1.871844 476.24473 207.518219)" fill="#fff" stroke="#fff" />
  <rect width="8.723563" height="3.855981" rx="0" ry="0" transform="translate(477.668162 204.288463)" fill="#fff" stroke="#fff" />
  <rect width="5.101528" height="4.937536" rx="0" ry="0" transform="translate(476.24473 199.350927)" fill="#fff" stroke="#fff" />
  <rect width="2.382582" height="2.966909" rx="0" ry="0" transform="translate(480.281103 201.819696)" fill="#fff" stroke="#fff" />
</svg>
